<?xml version="1.0" encoding="utf-8"?>
<!-- Generator: Adobe Illustrator 21.1.0, SVG Export Plug-In . SVG Version: 6.00 Build 0)  -->
<svg version="1.1" id="Layer_1" xmlns="http://www.w3.org/2000/svg" xmlns:xlink="http://www.w3.org/1999/xlink" x="0px" y="0px"
	 viewBox="0 0 117.2 116" style="enable-background:new 0 0 117.2 116;" xml:space="preserve">
<style type="text/css">
	.st0{fill:#40B3DB;}
	.st1{fill:#319FBC;}
	.st2{fill:#2690A8;}
	.st3{fill:#FFFFFF;}
</style>
<path class="st0" d="M59.2,116H58C26,116,0,90,0,58v0C0,26,26,0,58,0h1.2c32,0,58,26,58,58v0C117.2,90,91.2,116,59.2,116z"/>
<g>
	<path class="st1" d="M96.2,54.3c-5.4,0-5.4-4.9-10.7-4.9c-5.4,0-5.4,4.9-10.7,4.9s-5.4-4.9-10.7-4.9s-5.4,4.9-10.7,4.9
		c-5.4,0-5.4-4.9-10.7-4.9c-5.4,0-5.4,4.9-10.7,4.9s-5.4-4.9-10.7-4.9v12.4c5.4,0,5.4,4.9,10.7,4.9s5.4-4.9,10.7-4.9
		c5.4,0,5.4,4.9,10.7,4.9c5.4,0,5.4-4.9,10.7-4.9c5.4,0,5.4,4.9,10.7,4.9c5.4,0,5.4-4.9,10.7-4.9c5.4,0,5.4,4.9,10.7,4.9"/>
	<path class="st2" d="M96.2,41.8c-5.4,0-5.4-4.9-10.7-4.9c-5.4,0-5.4,4.9-10.7,4.9s-5.4-4.9-10.7-4.9s-5.4,4.9-10.7,4.9
		c-5.4,0-5.4-4.9-10.7-4.9c-5.4,0-5.4,4.9-10.7,4.9s-5.4-4.9-10.7-4.9v12.4c5.4,0,5.4,4.9,10.7,4.9s5.4-4.9,10.7-4.9
		c5.4,0,5.4,4.9,10.7,4.9c5.4,0,5.4-4.9,10.7-4.9c5.4,0,5.4,4.9,10.7,4.9c5.4,0,5.4-4.9,10.7-4.9c5.4,0,5.4,4.9,10.7,4.9"/>
	<path class="st0" d="M96.2,66.7c-5.4,0-5.4-4.9-10.7-4.9c-5.4,0-5.4,4.9-10.7,4.9s-5.4-4.9-10.7-4.9s-5.4,4.9-10.7,4.9
		c-5.4,0-5.4-4.9-10.7-4.9c-5.4,0-5.4,4.9-10.7,4.9s-5.4-4.9-10.7-4.9v12.4c5.4,0,5.4,4.9,10.7,4.9s5.4-4.9,10.7-4.9
		c5.4,0,5.4,4.9,10.7,4.9c5.4,0,5.4-4.9,10.7-4.9c5.4,0,5.4,4.9,10.7,4.9c5.4,0,5.4-4.9,10.7-4.9c5.4,0,5.4,4.9,10.7,4.9"/>
	<path class="st3" d="M21,38.2c2.2,0,3.2,0.9,4.5,2.1c1.4,1.3,3.1,2.8,6.3,2.8c3.2,0,4.8-1.5,6.3-2.8c1.3-1.2,2.3-2.1,4.5-2.1
		c2.2,0,3.2,0.9,4.5,2.1c1.4,1.3,3.1,2.8,6.3,2.8s4.8-1.5,6.3-2.8c1.3-1.2,2.3-2.1,4.5-2.1c2.2,0,3.2,0.9,4.5,2.1
		c1.4,1.3,3.1,2.8,6.3,2.8s4.8-1.5,6.3-2.8c1.3-1.2,2.3-2.1,4.5-2.1c2.2,0,3.2,0.9,4.5,2.1c1.4,1.3,3.1,2.8,6.3,2.8
		c0.7,0,1.3-0.6,1.3-1.3c0-0.7-0.6-1.3-1.3-1.3c-2.2,0-3.2-0.9-4.5-2.1c-1.4-1.3-3.1-2.8-6.3-2.8s-4.8,1.5-6.3,2.8
		c-1.3,1.2-2.3,2.1-4.5,2.1c-2.2,0-3.2-0.9-4.5-2.1c-1.4-1.3-3.1-2.8-6.3-2.8s-4.8,1.5-6.3,2.8c-1.3,1.2-2.3,2.1-4.5,2.1
		c-2.2,0-3.2-0.9-4.5-2.1c-1.4-1.3-3.1-2.8-6.3-2.8c-3.2,0-4.8,1.5-6.3,2.8c-1.3,1.2-2.3,2.1-4.5,2.1s-3.2-0.9-4.5-2.1
		c-1.4-1.3-3.1-2.8-6.3-2.8c-0.7,0-1.3,0.6-1.3,1.3C19.7,37.6,20.3,38.2,21,38.2z"/>
	<path class="st3" d="M96.2,52.9c-2.2,0-3.2-0.9-4.5-2.1c-1.4-1.3-3.1-2.8-6.3-2.8s-4.8,1.5-6.3,2.8c-1.3,1.2-2.3,2.1-4.5,2.1
		c-2.2,0-3.2-0.9-4.5-2.1C68.8,49.5,67.2,48,64,48c-3.2,0-4.8,1.5-6.3,2.8c-1.3,1.2-2.3,2.1-4.5,2.1c-2.2,0-3.2-0.9-4.5-2.1
		c-0.2-0.2-0.3-0.3-0.5-0.5c-0.5-0.5-1.4-0.4-1.9,0.1c-0.5,0.5-0.4,1.4,0.1,1.9c0.2,0.1,0.3,0.3,0.5,0.4c1.4,1.3,3.1,2.8,6.3,2.8
		c3.2,0,4.8-1.5,6.3-2.8c1.3-1.2,2.3-2.1,4.5-2.1c2.2,0,3.2,0.9,4.5,2.1c1.4,1.3,3.1,2.8,6.3,2.8c3.2,0,4.8-1.5,6.3-2.8
		c1.3-1.2,2.3-2.1,4.5-2.1c2.2,0,3.2,0.9,4.5,2.1c1.4,1.3,3.1,2.8,6.3,2.8c0.7,0,1.3-0.6,1.3-1.3C97.5,53.5,96.9,52.9,96.2,52.9z"/>
	<path class="st3" d="M21,50.6c2.2,0,3.2,0.9,4.5,2.1c1.4,1.3,3.1,2.8,6.3,2.8c3.2,0,4.8-1.5,6.3-2.8c1.3-1.2,2.3-2.1,4.5-2.1
		c0.5,0,0.9,0,1.3,0.1c0.7,0.2,1.4-0.3,1.6-1s-0.3-1.4-1-1.6c-0.6-0.1-1.2-0.2-1.9-0.2c-3.2,0-4.8,1.5-6.3,2.8
		c-1.3,1.2-2.3,2.1-4.5,2.1s-3.2-0.9-4.5-2.1C25.8,49.5,24.2,48,21,48c-0.7,0-1.3,0.6-1.3,1.3S20.3,50.6,21,50.6z"/>
	<path class="st3" d="M96.2,77.8c-2.2,0-3.2-0.9-4.5-2.1c-1.4-1.3-3.1-2.8-6.3-2.8s-4.8,1.5-6.3,2.8c-1.3,1.2-2.3,2.1-4.5,2.1
		c-2.2,0-3.2-0.9-4.5-2.1c-1.4-1.3-3.1-2.8-6.3-2.8c-3.2,0-4.8,1.5-6.3,2.8c-1.3,1.2-2.3,2.1-4.5,2.1c-2.2,0-3.2-0.9-4.5-2.1
		c-1.4-1.3-3.1-2.8-6.3-2.8c-3.2,0-4.8,1.5-6.3,2.8c-1.3,1.2-2.3,2.1-4.5,2.1c-0.7,0-1.3,0.6-1.3,1.3c0,0.7,0.6,1.3,1.3,1.3
		c3.2,0,4.8-1.5,6.3-2.8c1.3-1.2,2.3-2.1,4.5-2.1c2.2,0,3.2,0.9,4.5,2.1c1.4,1.3,3.1,2.8,6.3,2.8c3.2,0,4.8-1.5,6.3-2.8
		c1.3-1.2,2.3-2.1,4.5-2.1s3.2,0.9,4.5,2.1c1.4,1.3,3.1,2.8,6.3,2.8c3.2,0,4.8-1.5,6.3-2.8c1.3-1.2,2.3-2.1,4.5-2.1
		c2.2,0,3.2,0.9,4.5,2.1c1.4,1.3,3.1,2.8,6.3,2.8c0.7,0,1.3-0.6,1.3-1.3C97.5,78.4,96.9,77.8,96.2,77.8z"/>
	<path class="st3" d="M28.7,76.8c-0.5-0.3-0.9-0.7-1.4-1.2c-1.4-1.3-3.1-2.8-6.3-2.8c-0.7,0-1.3,0.6-1.3,1.3c0,0.7,0.6,1.3,1.3,1.3
		c2.2,0,3.2,0.9,4.5,2.1c0.5,0.5,1,0.9,1.7,1.4c0.2,0.2,0.5,0.2,0.8,0.2c0.4,0,0.8-0.2,1.1-0.6C29.4,78.1,29.3,77.2,28.7,76.8z"/>
	<path class="st3" d="M96.2,65.4c-2.2,0-3.2-0.9-4.5-2.1c-1.4-1.3-3.1-2.8-6.3-2.8c-3.2,0-4.8,1.5-6.3,2.8c-0.5,0.5-0.6,1.3-0.1,1.9
		c0.5,0.5,1.3,0.6,1.9,0.1c1.3-1.2,2.3-2.1,4.5-2.1c2.2,0,3.2,0.9,4.5,2.1c1.4,1.3,3.1,2.8,6.3,2.8c0.7,0,1.3-0.6,1.3-1.3
		C97.5,65.9,96.9,65.4,96.2,65.4z"/>
	<path class="st3" d="M21,63.1c2.2,0,3.2,0.9,4.5,2.1c1.4,1.3,3.1,2.8,6.3,2.8c3.2,0,4.8-1.5,6.3-2.8c1.3-1.2,2.3-2.1,4.5-2.1
		c2.2,0,3.2,0.9,4.5,2.1c1.4,1.3,3.1,2.8,6.3,2.8s4.8-1.5,6.3-2.8c1.3-1.2,2.3-2.1,4.5-2.1c2.2,0,3.2,0.9,4.5,2.1
		c1.4,1.3,3.1,2.8,6.3,2.8c0.7,0,1.5-0.1,2.1-0.3c0.7-0.2,1.1-0.9,0.9-1.6c-0.2-0.7-0.9-1.1-1.6-0.9c-0.4,0.1-0.9,0.2-1.5,0.2
		c-2.2,0-3.2-0.9-4.5-2.1c-1.4-1.3-3.1-2.8-6.3-2.8c-3.2,0-4.8,1.5-6.3,2.8c-1.3,1.2-2.3,2.1-4.5,2.1c-2.2,0-3.2-0.9-4.5-2.1
		c-1.4-1.3-3.1-2.8-6.3-2.8s-4.8,1.5-6.3,2.8c-1.3,1.2-2.3,2.1-4.5,2.1s-3.2-0.9-4.5-2.1c-1.4-1.3-3.1-2.8-6.3-2.8
		c-0.7,0-1.3,0.6-1.3,1.3S20.3,63.1,21,63.1z"/>
</g>
</svg>
