<?xml version="1.0" encoding="utf-8"?>
<!-- Generator: Adobe Illustrator 21.1.0, SVG Export Plug-In . SVG Version: 6.00 Build 0)  -->
<svg version="1.1" id="Layer_1" xmlns="http://www.w3.org/2000/svg" xmlns:xlink="http://www.w3.org/1999/xlink" x="0px" y="0px"
	 viewBox="0 0 117.2 116" style="enable-background:new 0 0 117.2 116;" xml:space="preserve">
<style type="text/css">
	.st0{fill:#84FFFF;}
	.st1{fill:#FFFFFF;}
</style>
<path class="st0" d="M59.2,116H58C26,116,0,90,0,58l0,0C0,26,26,0,58,0h1.2c32,0,58,26,58,58l0,0C117.2,90,91.2,116,59.2,116z"/>
<g>
	<path class="st1" d="M60.1,25.7c6.3,0,11.4,5.1,11.4,11.4s-5.1,11.4-11.4,11.4H30.7c-0.9,0-1.6,0.7-1.6,1.6s0.7,1.6,1.6,1.6h29.4
		c8.1,0,14.7-6.6,14.7-14.7s-6.6-14.7-14.7-14.7c-0.9,0-1.6,0.7-1.6,1.6S59.2,25.7,60.1,25.7z"/>
	<path class="st1" d="M71.5,68.2H38.9c-0.9,0-1.6,0.7-1.6,1.6s0.7,1.6,1.6,1.6h32.6c6.3,0,11.4,5.1,11.4,11.4s-5.1,11.4-11.4,11.4
		c-0.9,0-1.6,0.7-1.6,1.6s0.7,1.6,1.6,1.6c8.1,0,14.7-6.6,14.7-14.7S79.6,68.2,71.5,68.2z"/>
	<path class="st1" d="M53.6,38.8c0.9,0,1.6-0.7,1.6-1.6c0-2.7,2.2-4.9,4.9-4.9s4.9,2.2,4.9,4.9S62.8,42,60.1,42
		c-0.9,0-1.6,0.7-1.6,1.6c0,0.9,0.7,1.6,1.6,1.6c4.5,0,8.2-3.7,8.2-8.2s-3.7-8-8.2-8S52,32.7,52,37.2C52,38.1,52.7,38.8,53.6,38.8z"
		/>
	<path class="st1" d="M79.7,82.8c0-4.5-3.7-8.2-8.2-8.2c-0.9,0-1.6,0.7-1.6,1.6s0.7,1.6,1.6,1.6c2.7,0,4.9,2.2,4.9,4.9
		c0,2.7-2.2,4.9-4.9,4.9c-2.7,0-4.9-2.2-4.9-4.9c0-0.9-0.7-1.6-1.6-1.6s-1.6,0.7-1.6,1.6c0,4.5,3.7,8.2,8.2,8.2S79.7,87.3,79.7,82.8
		z"/>
	<path class="st1" d="M61.8,74.7H52c-0.9,0-1.6,0.7-1.6,1.6s0.7,1.6,1.6,1.6h9.8c0.9,0,1.6-0.7,1.6-1.6
		C63.4,75.4,62.7,74.7,61.8,74.7z"/>
	<path class="st1" d="M42.2,43.7c0,0.9,0.7,1.6,1.6,1.6h9.8c0.9,0,1.6-0.7,1.6-1.6c0-0.9-0.7-1.6-1.6-1.6h-9.8
		C42.9,42,42.2,42.8,42.2,43.7z"/>
	<path class="st1" d="M24.2,55.1c-0.9,0-1.6,0.7-1.6,1.6c0,0.9,0.7,1.6,1.6,1.6h50.6c0.9,0,1.6-0.7,1.6-1.6c0-0.9-0.7-1.6-1.6-1.6
		H24.2z"/>
	<path class="st1" d="M29.1,63.3c0,0.9,0.7,1.6,1.6,1.6h53.9c0.9,0,1.6-0.7,1.6-1.6s-0.7-1.6-1.6-1.6H30.7
		C29.8,61.6,29.1,62.4,29.1,63.3z"/>
</g>
</svg>
