<?xml version="1.0" encoding="utf-8"?>
<!-- Generator: Adobe Illustrator 21.1.0, SVG Export Plug-In . SVG Version: 6.00 Build 0)  -->
<svg version="1.1" id="Layer_1" xmlns="http://www.w3.org/2000/svg" xmlns:xlink="http://www.w3.org/1999/xlink" x="0px" y="0px"
	 viewBox="0 0 117.2 116" style="enable-background:new 0 0 117.2 116;" xml:space="preserve">
<style type="text/css">
	.st0{fill:#80DEEA;}
	.st1{fill:#B4E66E;}
	.st2{fill:#A0D755;}
	.st3{fill:#9B735A;}
	.st4{fill:#87BE4B;}
	.st5{fill:#8C5F50;}
	.st6{fill:#AE8B70;}
</style>
<path class="st0" d="M59.3,115.7h-1.5C25.9,115.7,0,89.8,0,57.9l0,0C0,25.9,25.9,0,57.9,0h1.5c32,0,57.9,25.9,57.9,57.9l0,0
	C117.2,89.8,91.3,115.7,59.3,115.7z"/>
<g>
	<path class="st1" d="M76.5,34.6c-0.1-0.5-0.5-0.9-1-1c-3.1-0.4-6.5,0.6-9,3.1s-3.6,5.9-3.1,9c0.1,0.5,0.5,0.9,1,1
		c3.1,0.4,6.5-0.6,9-3.1C75.9,41,76.9,37.7,76.5,34.6z"/>
	<path class="st2" d="M76.5,34.6c0-0.2-0.2-0.5-0.3-0.6L63.8,46.3c0.2,0.2,0.4,0.3,0.6,0.3c3.1,0.4,6.5-0.6,9-3.1
		S76.9,37.7,76.5,34.6z"/>
	<path class="st1" d="M46,20.8c-0.6,0.1-1,0.5-1.1,1.1c-0.2,2.3,0.6,4.7,2.4,6.5c1.8,1.8,4.3,2.6,6.5,2.4c0.6-0.1,1-0.5,1.1-1.1
		c0.2-2.3-0.6-4.7-2.4-6.5S48.2,20.6,46,20.8z"/>
	<path class="st2" d="M47.3,28.5c1.8,1.8,4.3,2.6,6.5,2.4c0.3,0,0.6-0.2,0.8-0.4l-9.4-9.4c-0.2,0.2-0.3,0.5-0.4,0.8
		C44.6,24.2,45.5,26.6,47.3,28.5z"/>
	<path class="st1" d="M34.8,39.9c-0.5,0.1-0.9,0.5-0.9,0.9c-0.8,4.7,0.7,9.8,4.5,13.6s8.9,5.3,13.6,4.5c0.5-0.1,0.9-0.5,0.9-0.9
		c0.8-4.7-0.7-9.8-4.5-13.6C44.6,40.6,39.4,39.1,34.8,39.9z"/>
	<path class="st2" d="M38.4,54.5c3.8,3.8,8.9,5.3,13.6,4.5c0.2,0,0.5-0.2,0.6-0.3L34.1,40.2c-0.2,0.2-0.3,0.4-0.3,0.6
		C33,45.5,34.6,50.7,38.4,54.5z"/>
	<path class="st3" d="M81.2,94c-1.8-4.2-6-7.1-10.8-7.1c-0.3,0-0.6,0-0.9,0c-0.6,0.1-1.2-0.1-1.7-0.5c-2.6-1.9-5.8-3.1-9.2-3.1
		c-3.5,0-6.6,1.1-9.2,3.1c-0.5,0.4-1.1,0.6-1.7,0.5c-0.3,0-0.6,0-0.9,0c-4.8,0-9,2.9-10.8,7.1H81.2L81.2,94z"/>
	<path class="st4" d="M68.9,41.2c-0.5-0.5-1.2-0.5-1.7,0l-6.7,6.7c-0.3,0.3-0.5,0.5-0.7,0.8v-9.1c0-3.5-1.4-6.7-3.8-9.2l-5.3-5.3
		c-0.5-0.5-1.2-0.5-1.7,0s-0.5,1.2,0,1.7l5.3,5.3c2,2,3.1,4.7,3.1,7.5v22.7c-0.6-1-1.3-1.9-2.1-2.7l-10.1-10c-0.5-0.5-1.2-0.5-1.7,0
		s-0.5,1.2,0,1.7l10.1,10.1c2.5,2.5,3.8,5.7,3.8,9.2v14h2.4V55.4c0-2.2,0.9-4.3,2.4-5.8l6.7-6.7C69.3,42.4,69.3,41.7,68.9,41.2z"/>
	<path class="st5" d="M61.2,83.6c-0.8-0.1-1.7-0.2-2.6-0.2c-3.5,0-6.6,1.1-9.2,3.1c-0.5,0.4-1.1,0.6-1.7,0.5c-0.3,0-0.6,0-0.9,0
		c-4.8,0-9,2.9-10.8,7.1h15.4C53,89.3,56.6,85.5,61.2,83.6z"/>
	<path class="st6" d="M84.6,95.2h-52c-0.7,0-1.2-0.5-1.2-1.2s0.5-1.2,1.2-1.2h52c0.7,0,1.2,0.5,1.2,1.2
		C85.8,94.7,85.2,95.2,84.6,95.2z"/>
</g>
</svg>
