<?xml version="1.0" encoding="utf-8"?>
<!-- Generator: Adobe Illustrator 21.1.0, SVG Export Plug-In . SVG Version: 6.00 Build 0)  -->
<svg version="1.1" id="Layer_1" xmlns="http://www.w3.org/2000/svg" xmlns:xlink="http://www.w3.org/1999/xlink" x="0px" y="0px"
	 viewBox="0 0 117.2 116" style="enable-background:new 0 0 117.2 116;" xml:space="preserve">
<style type="text/css">
	.st0{fill:#8CAC44;}
	.st1{fill:#FFFFFF;}
</style>
<g>
	<path class="st0" d="M113.5,44c-1.1-1.7-2.3-5.9-3.5-6.5c-6.7-14.1-19-25.9-34-31c6.5,0.4,9.3,4.2,13,6.3
		c10.6,5.7,18.6,15.6,23.2,25.6c-1.9-4-4.1-7.8-6.8-11.3C109.2,32.5,111.8,37.6,113.5,44L113.5,44z M115.2,56.8
		c0.2,1.6,0.3,3.2,0.3,4.6C115.3,59.8,115.3,58.3,115.2,56.8L115.2,56.8z M66,9.3c-6.7-0.9-13.8-0.7-20.7,1c7.4-2,15.9-3.1,23.4-0.9
		L66,9.3L66,9.3z M75.5,12.5C82,14.5,88,18.3,92.4,23C87.9,18.4,82,14.8,75.5,12.5L75.5,12.5z M22.4,16c0.8-0.7,1.6-1.3,2.4-1.9
		C23.9,14.7,23.1,15.4,22.4,16L22.4,16z M106.3,83.9c-0.7,0.8-1.3,1.7-1.6,2.6c1.4-1.6,3.6-5.1,4.7-6l-0.2,2
		c4.1-4.4,6.6-15.1,8.1-21.1c-2.5,14.5-9.7,30.3-22.9,41.3c-13,11.1-32.2,15.9-48.6,11.5c-18.5-4.1-34-16.5-42.1-32.7
		c-1.6-3-3.4-11.1-3.3-17C-0.7,54.3,1.1,43.7,5,34C14.1,13.4,35.9,0.3,59.6,0c4.9,0.1,10.8,2.6-0.4,2.8c-7.3,0.7-14.5,2.5-21.3,5.4
		c4.7-2,9.5-3.2,14.6-3.8c-2.1,0.4-4.3,0.8-6.2,1.3c10-1.9,20.1-1.2,29.6,1.6c-13.7-2.9-28.7-1.4-41.6,5.3
		C21.5,19.1,11.4,31,7.7,44.3C11,37.4,15.1,27.8,21,24C12.3,32.8,6.8,44.8,5.6,57.5c0-1-0.1-1.9,0-2.8c-1.9,7.9-0.4,16.7,2.1,24.2
		c-2.1-7.1-2.7-14.4-2-21.4c0,3.2,0.1,6.7,0.4,10.8c0.2-2.2,0.2-5.4,0.5-8.6c0.2-4.1,0.8-8.3,2-12.2C7,53.6,6.8,60,7.9,65.5
		C7.6,57.1,9,48.4,12.6,40.9c-1.6,4.3-3,8.7-3.4,13.2c-1.3,7.5-1,15.5,1.3,23l-0.3-0.8c0.1,0.6,0.4,1.1,0.6,1.7
		c0.9,2.9,2.2,5.8,3.6,8.6c1.4,2.4,3.1,4.6,5.1,6.4l0.8,1.1c-0.7-0.6-1.1-0.7-0.2,0.6c4.2,6,11.1,10.1,18.1,14.3
		c1.9,1.1,4.7,2.1,7.8,2.7c0.8,0.4,1.3,0.4,1.7,0.3c0.7,0.1,1.3,0.3,2,0.4c1.7,0.2,3.3,0.5,5,0.5c-1.6-0.2-3.3-0.4-5-0.5
		c-0.6-0.1-1.2-0.3-1.8-0.4c0.5-0.1,0.9-0.2,1.8,0c-11.2-2.4-21.8-8.9-29.5-18c0.6,0.4,1.4,1,1.8,1.3c-0.9-0.7-1.8-1.5-2.6-2.3
		c-2.4-3-4.5-6.2-6.2-9.7c0.6,1,1.2,1.9,1.9,2.6C10,76.2,7.7,65,9.1,54.1c1.7-10.2,6.6-19.6,13.6-26.7c-4.1,3.5-7.7,8.2-10.2,13.5
		c5.9-14.5,19.2-26.1,34.6-29.1c-1.9,1-4.1,2.3-5.7,3.6c1.4-0.7,2.9-1.4,4.6-1.8l0.8-0.2c-1.9,0.5-3.7,1.4-5.6,2.1
		c-0.5,0.4-0.9,0.9-1.2,1.3c0.3,0.3,4.8-1.1,2.3,0.1c-8.6,4.9-14.5,9-15.2,13.7c0,0.1,0.1,0.1,0.3,0c8.2-9.8,20.5-16.1,34.2-16.1
		c24.6,0,44.5,19.9,44.5,44.5c0,2-0.1,3.9-0.4,5.8c0.3-0.7,0.5-1.4,0.8-2.2c0.3,8.3-3.8,16.9-7,24.2c6.4-7.3,8.7-20.7,10.7-22
		c2.9-1.3-1.3,14.1-5.6,20.8C105.6,84.7,105.6,84.7,106.3,83.9L106.3,83.9z M32.8,10.6L32.8,10.6c0.7-0.3,1.5-0.7,2.2-1.1
		C34.3,9.9,33.5,10.2,32.8,10.6c0.7-1.1,4.8-2.7,6.6-3.8c-5.6,1.8-10.1,4-14.6,7.3c2.4-1.8,4.8-3.4,7.4-4.8
		C22.6,14.4,13.6,23,8.3,33.6c-1.9,4-5.9,6.9-5.8,13.8C7,31.6,18.4,18.2,32.8,10.6L32.8,10.6z M27.5,87.7c0.1-0.1,0.1-0.1,0.2-0.2
		c-0.5-0.6-1-1.3-1.5-1.9c0.2,0.6,0.5,1.2,0.6,1.8c0.6,0.3,1.2,0.8,1.9,1.4C28.2,88.3,27.9,87.9,27.5,87.7L27.5,87.7z M50.8,102.1
		l0.3,0.2c0.1,0,0.3,0,0.4,0C51.3,102.2,51,102.2,50.8,102.1L50.8,102.1z M57.7,103.3c0.7,0.1,1.3,0.3,2,0.4c0.1,0,0.3-0.1,0.5-0.3
		C59.3,103.4,58.5,103.4,57.7,103.3L57.7,103.3z M69.1,13c4.3,0.8,8.6,2,12.5,3.9c5,2.7,9.4,6.2,12.6,10.4
		C87.5,20.3,78.8,15.2,69.1,13L69.1,13z"/>
</g>
<g>
	<g>
		<g>
			<rect x="55" y="41.7" class="st1" width="1.7" height="1.7"/>
		</g>
	</g>
	<g>
		<g>
			<rect x="51.6" y="41.7" class="st1" width="1.7" height="1.7"/>
		</g>
	</g>
	<g>
		<g>
			<rect x="58.4" y="41.7" class="st1" width="1.7" height="1.7"/>
		</g>
	</g>
	<g>
		<g>
			<path class="st1" d="M73.7,49.4v-2.6c0-3.3-2.7-6-6-6h-2.6v-2.5h-4.3c-0.4-2.4-2.5-4.3-5-4.3c-2.5,0-4.6,1.8-5,4.3h-4.3v2.6h-2.6
				c-3.3,0-6,2.7-6,6v34c0,3.3,2.7,6,6,6h23.8c3.3,0,6-2.7,6-6v-2.6c7.6-0.4,13.6-6.7,13.6-14.4S81.2,49.8,73.7,49.4z M48.2,40h4.3
				v-0.9c0-1.9,1.5-3.4,3.4-3.4c1.9,0,3.4,1.5,3.4,3.4V40h4.3v5.1H48.2V40z M72,80.8c0,2.3-1.9,4.2-4.3,4.2H43.9
				c-2.3,0-4.3-1.9-4.3-4.3v-34c0-2.3,1.9-4.3,4.3-4.3h2.6v4.3h18.7v-4.3h2.6c2.3,0,4.3,1.9,4.3,4.3v2.6c-5.2,0.3-9.6,3.3-11.9,7.6
				v0H42.2v1.7h17.1c-0.6,1.6-1.1,3.4-0.9,6H42.2v1.7h16.4c0.4,2.2,1.3,4.2,2.6,6H42.2V74h20.4c2.4,2.4,5.7,4,9.4,4.2V80.8z
				 M72.8,76.5c-7,0-12.7-5.7-12.7-12.7S65.8,51,72.8,51c7,0,12.7,5.7,12.7,12.7S79.9,76.5,72.8,76.5z"/>
		</g>
	</g>
	<g>
		<g>
			<polygon class="st1" points="80,58 70,66.8 66.6,62.2 65.2,63.2 69.8,69.3 81.1,59.3 			"/>
		</g>
	</g>
	<g>
		<g>
			<rect x="42.2" y="49.3" class="st1" width="17.8" height="1.7"/>
		</g>
	</g>
	<g>
		<g>
			<rect x="42.2" y="79.9" class="st1" width="17.8" height="1.7"/>
		</g>
	</g>
</g>
</svg>
