<?xml version="1.0" encoding="utf-8"?>
<!-- Generator: Adobe Illustrator 21.1.0, SVG Export Plug-In . SVG Version: 6.00 Build 0)  -->
<svg version="1.1" id="Layer_1" xmlns="http://www.w3.org/2000/svg" xmlns:xlink="http://www.w3.org/1999/xlink" x="0px" y="0px"
	 viewBox="0 0 117.2 116" style="enable-background:new 0 0 117.2 116;" xml:space="preserve">
<style type="text/css">
	.st0{fill:#90DFAA;}
	.st1{fill:#324A5E;}
	.st2{fill:#FFFFFF;}
	.st3{fill:#E6E9EE;}
	.st4{fill:#FF7058;}
</style>
<path class="st0" d="M59.2,116H58C26,116,0,90,0,58l0,0C0,26,26,0,58,0h1.2c32,0,58,26,58,58l0,0C117.2,90,91.2,116,59.2,116z"/>
<g>
	<path class="st1" d="M79.6,88.6h-42c-0.4,0-0.8-0.3-0.8-0.8V34.6c0-0.4,0.3-0.8,0.8-0.8h42c0.4,0,0.8,0.3,0.8,0.8v53.2
		C80.4,88.2,80,88.6,79.6,88.6z"/>
	<polygon class="st2" points="41.1,36.9 41.1,80.3 70,80.3 70,74.2 76.1,74.2 76.1,36.9 	"/>
	<polygon class="st3" points="70,80.3 76.1,74.2 70,74.2 	"/>
	<path class="st4" d="M62,32.1v-1.2c0-1.9-1.5-3.4-3.4-3.4s-3.4,1.5-3.4,3.4v1.2h-6v7h19v-7H62z M58.6,32.6c-0.9,0-1.7-0.8-1.7-1.7
		c0-0.9,0.8-1.7,1.7-1.7s1.7,0.8,1.7,1.7S59.5,32.6,58.6,32.6z"/>
	<path class="st3" d="M65.6,68.6H46.1V49.1h19.5V68.6z M48,66.7h15.7V51H48V66.7z"/>
	<polygon class="st4" points="57.2,64.7 50,57.5 53.4,54.1 57.2,57.9 67.7,47.4 71.1,50.8 	"/>
</g>
</svg>
