<?xml version="1.0" encoding="utf-8"?>
<!-- Generator: Adobe Illustrator 21.1.0, SVG Export Plug-In . SVG Version: 6.00 Build 0)  -->
<svg version="1.1" id="Layer_1" xmlns="http://www.w3.org/2000/svg" xmlns:xlink="http://www.w3.org/1999/xlink" x="0px" y="0px"
	 viewBox="0 0 117.2 116" style="enable-background:new 0 0 117.2 116;" xml:space="preserve">
<style type="text/css">
	.st0{fill:#01579B;}
	.st1{fill:#FFEBBD;}
	.st2{fill:#F7B64C;}
	.st3{fill:#FFD15C;}
</style>
<path class="st0" d="M58.6,117.2L58.6,117.2C26.2,117.2,0,91,0,58.6l0,0C0,26.2,26.2,0,58.6,0l0,0c32.4,0,58.6,26.2,58.6,58.6l0,0
	C117.2,91,91,117.2,58.6,117.2z"/>
<g>
	<path class="st1" d="M93.7,74.2H62.6c-1.6,0-2.9,1.3-2.9,2.9l0,0c0,1.6,1.3,2.9,2.9,2.9h31.3c1.6,0,2.9-1.3,2.9-2.9l0,0
		C96.8,75.5,95.3,74,93.7,74.2z"/>
	<path class="st2" d="M59.4,86.6v3.5h37.3v-3.5c0-2.6-1.2-5-2.9-6.6l0,0H62.5l0,0C60.7,81.6,59.5,84,59.4,86.6z"/>
	<path class="st3" d="M28.7,78.4l33-30c1.8-1.6,4.5-1.5,6.1,0.1l0,0c1.6,1.6,1.8,4.4,0.1,6.1L38.2,87.9c-2.6,2.9-7,3.1-9.8,0.3l0,0
		C25.6,85.4,25.8,80.9,28.7,78.4z"/>
	<path class="st2" d="M64.8,58.2l3.2-3.5c1.6-1.8,1.5-4.5-0.1-6.1s-4.4-1.8-6.1-0.1l-3.5,3.2c1,1.3,2,2.3,3.2,3.5
		C62.5,56.2,63.6,57.2,64.8,58.2z"/>
	<path class="st1" d="M76.2,62.6C67,56.8,59.7,49.3,53.8,40.3l16.5-16.5c9.2,5.8,16.5,13.3,22.4,22.4L76.2,62.6z"/>
	<g>
		<path class="st2" d="M71.4,59.3c1.6,1.2,3.2,2.3,4.8,3.4l16.5-16.5c-1-1.6-2.2-3.2-3.4-4.8L71.4,59.3z"/>
		<path class="st2" d="M75.3,27.1c-1.6-1.2-3.2-2.3-4.8-3.4L53.8,40.3c1,1.6,2.2,3.2,3.4,4.8L75.3,27.1z"/>
	</g>
	<g>
		<path class="st3" d="M73.3,65.7c-1.2-1.2-1.2-3.1,0-4.2L91.4,43c1.2-1.2,3.1-1.2,4.2,0s1.2,3.1,0,4.2L77.4,65.5
			C76.2,66.7,74.4,66.7,73.3,65.7z"/>
		<path class="st3" d="M50.9,43.2c-1.2-1.2-1.2-3.1,0-4.2l18.3-18.3c1.2-1.2,3.1-1.2,4.2,0s1.2,3.1,0,4.2L55.1,43.3
			C54,44.5,52.1,44.4,50.9,43.2z"/>
	</g>
</g>
</svg>
