<?xml version="1.0" encoding="utf-8"?>
<!-- Generator: Adobe Illustrator 21.1.0, SVG Export Plug-In . SVG Version: 6.00 Build 0)  -->
<svg version="1.1" id="Layer_1" xmlns="http://www.w3.org/2000/svg" xmlns:xlink="http://www.w3.org/1999/xlink" x="0px" y="0px"
	 viewBox="0 0 117.2 116" style="enable-background:new 0 0 117.2 116;" xml:space="preserve">
<style type="text/css">
	.st0{fill:#F4D600;}
	.st1{fill:#324A5E;}
	.st2{fill:#FFFFFF;}
	.st3{fill:#E6E9EE;}
	.st4{fill:#FF7058;}
	.st5{fill:#FFD05B;}
</style>
<path class="st0" d="M59.2,116H58C26,116,0,90,0,58v0C0,26,26,0,58,0h1.2c32,0,58,26,58,58v0C117.2,90,91.2,116,59.2,116z"/>
<g>
	<path class="st1" d="M83.3,93.9H33.9c-0.5,0-0.9-0.4-0.9-0.9V30.5c0-0.5,0.4-0.9,0.9-0.9h49.4c0.5,0,0.9,0.4,0.9,0.9V93
		C84.2,93.5,83.8,93.9,83.3,93.9z"/>
	<polygon class="st2" points="38,33.3 38,84.2 72,84.2 72,77 79.1,77 79.1,33.3 	"/>
	<polygon class="st3" points="72,84.2 79.1,77 72,77 	"/>
	<path class="st4" d="M62.6,27.5v-1.4c0-2.2-1.8-4-4-4s-4,1.8-4,4v1.4h-7.1v8.2h22.3v-8.2H62.6z"/>
	<circle class="st5" cx="58.6" cy="26.1" r="2"/>
</g>
<g>
	<path class="st1" d="M69.7,56l-1.2-0.3c-0.6-0.1-1.1-0.5-1.3-1.1c-0.3-0.6-0.2-1.2,0.2-1.7l0.8-1.1c0.3-0.4,0.2-0.9-0.1-1.2
		l-1.8-1.8c-0.4-0.3-0.8-0.4-1.2-0.1L64,49.4c-0.5,0.4-1.2,0.4-1.7,0.2c-0.6-0.3-1-0.7-1.1-1.3L61,47c-0.1-0.4-0.4-0.7-0.9-0.7h-2.5
		c-0.4,0-0.8,0.3-0.9,0.7l-0.4,1.7c-0.1,0.6-0.5,1.1-1.1,1.3c-0.6,0.2-1.2,0.2-1.7-0.2l-1.4-1c-0.4-0.3-0.9-0.2-1.2,0.1l-1.8,1.8
		c-0.3,0.4-0.4,0.8-0.1,1.2l0.8,1.1c0.4,0.5,0.4,1.2,0.2,1.7c-0.3,0.5-0.7,1-1.3,1.1l-1.2,0.3c-0.4,0.1-0.7,0.4-0.7,0.9v2.5
		c0,0.4,0.3,0.8,0.7,0.9l1.3,0.2c0.6,0.1,1.1,0.5,1.3,1.1c0.3,0.5,0.2,1.2-0.2,1.7l-0.7,1.1c-0.3,0.4-0.2,0.9,0.1,1.2l1.8,1.8
		c0.4,0.3,0.8,0.4,1.2,0.1l1.1-0.8c0.5-0.4,1.2-0.4,1.7-0.2c0.5,0.3,1,0.7,1.1,1.3l0.3,1.2c0.1,0.4,0.4,0.7,0.9,0.7h2.5
		c0.4,0,0.8-0.3,0.8-0.6l0.2-1c0.1-0.6,0.5-1.1,1.1-1.3c0.5-0.3,1.2-0.2,1.7,0.2l0.8,0.5c0.4,0.3,0.9,0.2,1.2-0.1l1.8-1.8
		c0.3-0.4,0.4-0.8,0.1-1.2l-0.8-1.1c-0.4-0.5-0.4-1.2-0.2-1.7c0.3-0.5,0.8-0.9,1.8-1.2l1.3-0.2c0.4-0.1,0.7-0.4,0.7-0.9v-2.5
		C70.5,56.5,70.2,56.1,69.7,56z M68.2,58.9L67.6,59c-1.2,0.2-2.2,0.9-2.7,2.1c-0.4,1.1-0.4,2.4,0.4,3.4l0.4,0.4L65,65.6l-0.2-0.1
		c-1.1-0.8-2.3-0.9-3.5-0.4s-2,1.5-2.1,2.8v0.2h-1L58,67.6c-0.2-1.2-1-2.1-2.1-2.6c-1.2-0.4-2.4-0.3-3.4,0.4l-0.4,0.4l-0.7-0.7
		l0.3-0.5c0.7-1,0.8-2.3,0.4-3.4c-0.4-1.1-1.4-1.9-2.7-2.1L48.8,59v-1l0.6-0.2c1.2-0.2,2.1-1,2.6-2.1c0.4-1.2,0.3-2.4-0.4-3.4
		l-0.4-0.4l0.7-0.7l0.8,0.5c1,0.7,2.2,0.8,3.3,0.4c1.2-0.4,1.9-1.4,2.1-2.6l0.2-1h1l0.1,0.7c0.2,1.2,0.9,2.2,2.1,2.7
		c1.1,0.4,2.4,0.4,3.4-0.4l0.4-0.4l0.7,0.8l-0.4,0.4c-0.7,1-0.9,2.2-0.4,3.4c0.4,1.1,1.4,1.9,2.6,2.1l0.5,0.1L68.2,58.9L68.2,58.9z"
		/>
	<path class="st1" d="M58.5,53.7c-2.5,0-4.5,2-4.5,4.5s2,4.5,4.5,4.5s4.5-2,4.5-4.5S61,53.7,58.5,53.7z M58.5,60.8
		c-1.5,0-2.7-1.2-2.7-2.7c0-1.5,1.2-2.7,2.7-2.7s2.7,1.2,2.7,2.7C61.2,59.7,60,60.8,58.5,60.8z"/>
</g>
</svg>
