<?xml version="1.0" encoding="utf-8"?>
<!-- Generator: Adobe Illustrator 21.1.0, SVG Export Plug-In . SVG Version: 6.00 Build 0)  -->
<svg version="1.1" id="Layer_1" xmlns="http://www.w3.org/2000/svg" xmlns:xlink="http://www.w3.org/1999/xlink" x="0px" y="0px"
	 viewBox="0 0 117.2 116" style="enable-background:new 0 0 117.2 116;" xml:space="preserve">
<style type="text/css">
	.st0{fill:#8DD9FF;}
	.st1{fill:#E5D7A8;}
	.st2{fill:#FFC868;}
	.st3{fill:#FFDC87;}
	.st4{fill:#F9BE58;}
	.st5{fill:#FFD267;}
	.st6{fill:#ECAB4E;}
	.st7{fill:#FFC353;}
</style>
<path class="st0" d="M59.2,116H58C26,116,0,90,0,58v0C0,26,26,0,58,0h1.2c32,0,58,26,58,58v0C117.2,90,91.2,116,59.2,116z"/>
<g>
	<g>
		<path class="st1" d="M117,62.3c0.1-1.4,0.2-2.8,0.2-4.2c0-2.1-0.1-4.2-0.3-6.2c-2.2,0.4-13.1,3.2-15.7,3.3
			c-2.7,0.1-6.7-2.5-8.7-1.8s-15.4,2.7-16.1,2.7c-0.7,0-7.9-2.9-9.4-2.9c-1.5,0-13.4,3.4-16.8,2.8s-8.8-3.5-10.4-3.5s-20.4,6-27,2.2
			S4,52.8,0.1,55.1l-0.1,0.2C0,56.2,0,57.1,0,58.1c0,4.2,0.5,8.3,1.3,12.2l88.9,3.8L117,62.3z"/>
	</g>
	<g>
		<path class="st2" d="M80.2,52.2c-4.5,0-17.3,10.4-25.7,11.9c5.9,8.1,14.2,13.2,23.4,13.2c9.4,0,17.8-5.2,23.7-13.5
			C96.7,61.4,85.4,52.2,80.2,52.2z"/>
	</g>
	<g>
		<path class="st3" d="M101.2,63.6c-5.1-2.6-16-11.3-21-11.3c-0.2,0-0.4,0-0.5,0.1c-2,0.6-3.7,4.2-1.8,8.3c1.8,3.9,5,10.1,0,16.7
			l0,0c3.3,0,8.9,2.6,13.2,3.1C95.6,75.9,99.1,70.1,101.2,63.6z"/>
	</g>
	<g>
		<path class="st4" d="M102.2,84.2c5-7.9,8-16.4,10.8-25.4c0.1-0.4,0.3-0.9,0.5-1.2c-3.8-2.2-7.3-3.9-9.7-3.9
			c-3.7,0-12,5.8-20.2,10.1c0.4,6.1,1.7,11.9,3.8,17.3c4.2,2,8.8,3.2,13.6,3.2C101.3,84.3,101.8,84.2,102.2,84.2z"/>
	</g>
	<g>
		<path class="st5" d="M103.7,53.7c-0.2,0-0.4,0-0.6,0.1c-2.4,0.7-4.5,5.1-2.2,10.1c2.3,4.8,6.1,12.3,0,20.3l0,0
			c2.4,0,5.7,1.1,9,2.1c4.4-7.9,6.9-16.9,7.2-26.5C112.1,56.7,106.9,53.7,103.7,53.7z"/>
	</g>
	<g>
		<path class="st2" d="M0.1,61.9c0.4,6.1,1.7,11.9,3.8,17.3c4.2,2,8.8,3.2,13.6,3.2c11.4,0,21.6-6.3,28.8-16.5
			c-5.9-2.8-19.7-14-26-14C16.6,51.8,8.3,57.6,0.1,61.9z"/>
	</g>
	<g>
		<path class="st3" d="M45.9,65.6c-6.2-3.1-19.4-13.8-25.6-13.8c-0.2,0-0.4,0-0.6,0.1c-2.4,0.7-4.5,5.1-2.2,10.1
			c2.3,4.8,6.1,12.3,0,20.3c0,0,0,0,0,0c4.1,0,10.8,3.2,16,3.8C39,80.6,43.3,73.6,45.9,65.6z"/>
	</g>
	<g>
		<path class="st4" d="M54.6,53.7c-5.5,0-21,12.6-31.3,14.4c7.2,9.9,17.3,16.1,28.5,16.1c11.4,0,21.6-6.3,28.8-16.5
			C74.7,65,60.9,53.7,54.6,53.7z"/>
	</g>
	<g>
		<path class="st5" d="M80.1,67.5C74,64.4,60.7,53.7,54.6,53.7c-0.2,0-0.4,0-0.6,0.1c-2.4,0.7-4.5,5.1-2.2,10.1
			c2.3,4.8,6.1,12.3,0,20.3l0,0c4.1,0,10.8,3.2,16,3.8C73.3,82.5,77.6,75.5,80.1,67.5z"/>
	</g>
	<g>
		<g>
			<path class="st4" d="M107.3,78.9c0-0.2,0-0.5,0-0.7c0-1,0.2-1.9,0.5-2.8c-8.7-4.9-21-12.8-27.4-12.8c-7.2,0-27.2,14.4-40.6,16.5
				c9.3,11.3,22.4,18.3,37,18.3c11.9,0,22.8-4.7,31.4-12.5C107.3,83.1,107,81,107.3,78.9z"/>
		</g>
		<g>
			<path class="st5" d="M113.6,78.4c-8-3.6-25.2-15.7-33.1-15.7c-0.3,0-0.6,0.1-0.8,0.1c-3.2,0.8-5.8,5.8-2.8,11.5
				c2.9,5.5,8,14,0,23.2l0,0c5.3,0,14,3.6,20.8,4.3C104.7,95.5,110.2,87.5,113.6,78.4z"/>
		</g>
	</g>
	<g>
		<g>
			<path class="st4" d="M28.9,66.3c-4.7,0-15.2,6.9-25.4,11.8c3.1,8.5,8.2,16.2,14.6,22.3c2.4,0.4,4.8,0.7,7.3,0.7
				c13.9,0,26.5-7.2,35.3-18.8C53.5,79.1,36.6,66.3,28.9,66.3z"/>
		</g>
		<g>
			<path class="st5" d="M60.7,82.3c-7.3-3.2-24.2-16-31.8-16c-0.2,0-0.5,0.1-0.8,0.1c-3,0.8-5.5,5.8-2.6,11.5c2.8,5.5,7.5,14,0,23.2
				l0,0C39.4,101.1,52,93.9,60.7,82.3z"/>
		</g>
	</g>
	<g>
		<path class="st6" d="M62.8,81.9c-8.2,0-31.3,14.4-46.7,16.5c10.7,11.3,25.8,18.3,42.6,18.3c17,0,32.3-7.2,43-18.8
			C92.7,94.7,72.2,81.9,62.8,81.9z"/>
	</g>
	<g>
		<path class="st7" d="M101.6,97.9c-8.9-3.2-29.4-16-38.8-16c-0.3,0-0.6,0.1-1,0.1c-3.6,0.8-6.7,5.8-3.2,11.5c3.4,5.5,9.2,14,0,23.2
			c0,0,0,0,0,0C75.6,116.7,90.9,109.4,101.6,97.9z"/>
	</g>
</g>
</svg>
